<svg width="48" height="48" viewBox="0 0 48 48" fill="none" xmlns="http://www.w3.org/2000/svg">
<path opacity="0.3" d="M24.0935 13.3337C23.1861 14.9026 22.6667 16.724 22.6667 18.6667C22.6667 24.5265 27.3919 29.2827 33.2399 29.3329C31.3957 32.5214 27.9484 34.6667 24 34.6667C18.109 34.6667 13.3334 29.891 13.3334 24C13.3334 18.109 18.109 13.3333 24 13.3333C24.0312 13.3333 24.0624 13.3335 24.0935 13.3337Z" fill="#242938"/>
<path d="M24.0935 13.3337C23.1861 14.9026 22.6667 16.724 22.6667 18.6667C22.6667 24.5265 27.3919 29.2827 33.2399 29.3329C31.3957 32.5214 27.9484 34.6667 24 34.6667C18.109 34.6667 13.3334 29.891 13.3334 24C13.3334 18.109 18.109 13.3333 24 13.3333C24.0312 13.3333 24.0624 13.3335 24.0935 13.3337Z" fill="#242938"/>
</svg>
